<svg width="68" height="68" viewBox="0 0 68 68" fill="none" xmlns="http://www.w3.org/2000/svg">
<path d="M27.3333 48.9998L47.3333 33.9998L27.3333 18.9998V48.9998ZM67.3333 33.9998C67.3333 15.5332 52.4666 0.666504 34 0.666504C30.1 0.666504 26.3333 1.29984 22.7333 2.53317L25.0666 8.99984C27.9 7.8665 30.8666 7.23317 34 7.23317C48.7 7.23317 60.7666 19.2998 60.7666 33.9998C60.7666 48.6998 48.7 60.7665 34 60.7665C19.3 60.7665 7.23329 48.6998 7.23329 33.9998C7.23329 30.8665 7.86663 27.7332 8.99996 24.9332L2.53329 22.7332C1.29996 26.3332 0.666626 30.0998 0.666626 33.9998C0.666626 52.4665 15.5333 67.3332 34 67.3332C52.4666 67.3332 67.3333 52.4665 67.3333 33.9998ZM12.2333 7.23317C15.0666 7.23317 17.3333 9.59984 17.3333 12.2332C17.3333 15.0665 15.0666 17.3332 12.2333 17.3332C9.59996 17.3332 7.23329 15.0665 7.23329 12.2332C7.23329 9.59984 9.59996 7.23317 12.2333 7.23317Z" fill="#008DE4"/>
</svg>
