<svg width="32" height="32" viewBox="0 0 32 32" fill="none" xmlns="http://www.w3.org/2000/svg">
<path d="M19.5868 13.6931C19.0907 15.6773 16.0023 14.6692 15.0422 14.3972L15.9223 10.9089C16.9144 11.197 20.0989 11.613 19.5868 13.6931ZM14.6101 16.1893L13.65 20.0456C14.8341 20.3496 18.4987 21.5177 19.0427 19.3415C19.6188 17.0694 15.7943 16.4773 14.6101 16.1893ZM31.5245 19.8696C29.3802 28.4462 20.707 33.6625 12.1297 31.5184C3.55251 29.3742 -1.65944 20.7016 0.480071 12.125C0.988372 10.0866 1.89328 8.16831 3.14312 6.47966C4.39296 4.791 5.96325 3.36509 7.76429 2.28336C9.56533 1.20162 11.5618 0.485261 13.6398 0.175185C15.7177 -0.134892 17.8364 -0.0326083 19.8749 0.476194C28.4361 2.62035 33.6528 11.293 31.5245 19.8696ZM19.5388 9.67685L20.2589 6.79664L18.4987 6.39661L17.7946 9.16481C17.3305 9.0528 16.8664 8.94079 16.3864 8.84479L17.0905 6.01259L15.3462 5.59656L14.6261 8.46076C14.242 8.36475 13.858 8.28475 13.5059 8.18874L11.0896 7.5807L10.6095 9.45283C10.6095 9.45283 11.9217 9.75685 11.8897 9.77285C12.6098 9.94886 12.7378 10.3969 12.7058 10.7969L10.7375 18.6855C10.6575 18.9095 10.4015 19.1975 9.93743 19.1175C9.95343 19.1335 8.65724 18.7975 8.65724 18.7975L7.79312 20.7976L10.0654 21.3737C10.4975 21.4857 10.9136 21.5977 11.3296 21.6937L10.5935 24.6059L12.3538 25.0539L13.0739 22.1577C13.5539 22.2857 14.018 22.3977 14.4661 22.5258L13.746 25.39L15.5062 25.838L16.2423 22.9258C19.2028 23.4858 21.4751 23.2618 22.4032 20.5576C23.2033 18.3975 22.4032 17.1174 20.803 16.3013C21.9552 15.9973 22.8193 15.2772 23.0593 13.7091C23.3794 11.581 21.7471 10.4449 19.5388 9.67685Z" fill="#F9CA06"/>
</svg>
