<svg width="10" height="13" viewBox="0 0 10 13" fill="none" xmlns="http://www.w3.org/2000/svg">
<path d="M6.25 0L10 3.9V11.7C10 12.0448 9.8683 12.3754 9.63388 12.6192C9.39946 12.863 9.08152 13 8.75 13H1.25C0.918479 13 0.600537 12.863 0.366116 12.6192C0.131696 12.3754 0 12.0448 0 11.7V1.3C0 0.955218 0.131696 0.624558 0.366116 0.380761C0.600537 0.136964 0.918479 0 1.25 0H6.25ZM8.75 11.7V4.55H5.625V1.3H1.25V11.7H8.75ZM8.125 7.15V11.05H1.875L5 7.8L6.25 9.1L8.125 7.15ZM3.75 5.525C3.75 5.78359 3.65123 6.03158 3.47541 6.21443C3.2996 6.39728 3.06114 6.5 2.8125 6.5C2.56386 6.5 2.3254 6.39728 2.14959 6.21443C1.97377 6.03158 1.875 5.78359 1.875 5.525C1.875 5.26641 1.97377 5.01842 2.14959 4.83557C2.3254 4.65272 2.56386 4.55 2.8125 4.55C3.06114 4.55 3.2996 4.65272 3.47541 4.83557C3.65123 5.01842 3.75 5.26641 3.75 5.525Z" fill="#7F8C98"/>
</svg>
