<svg width="23" height="30" viewBox="0 0 23 30" fill="none" xmlns="http://www.w3.org/2000/svg">
<path d="M11.5002 22.3755C10.7709 22.3755 10.0714 22.0858 9.5557 21.57C9.03997 21.0543 8.75024 20.3548 8.75024 19.6255C8.75024 18.0992 9.97399 16.8755 11.5002 16.8755C12.2296 16.8755 12.9291 17.1652 13.4448 17.6809C13.9605 18.1967 14.2502 18.8961 14.2502 19.6255C14.2502 20.3548 13.9605 21.0543 13.4448 21.57C12.9291 22.0858 12.2296 22.3755 11.5002 22.3755ZM19.7502 26.5005V12.7505H3.25024V26.5005H19.7502ZM19.7502 10.0005C20.4796 10.0005 21.1791 10.2902 21.6948 10.8059C22.2105 11.3217 22.5002 12.0211 22.5002 12.7505V26.5005C22.5002 27.2298 22.2105 27.9293 21.6948 28.445C21.1791 28.9608 20.4796 29.2505 19.7502 29.2505H3.25024C2.5209 29.2505 1.82143 28.9608 1.3057 28.445C0.789975 27.9293 0.500244 27.2298 0.500244 26.5005V12.7505C0.500244 11.2242 1.72399 10.0005 3.25024 10.0005H4.62524V7.25049C4.62524 5.42713 5.34957 3.67844 6.63888 2.38913C7.9282 1.09982 9.67688 0.375488 11.5002 0.375488C12.4031 0.375488 13.2971 0.553315 14.1312 0.898817C14.9653 1.24432 15.7232 1.75073 16.3616 2.38913C17 3.02753 17.5064 3.78543 17.8519 4.61954C18.1974 5.45365 18.3752 6.34765 18.3752 7.25049V10.0005H19.7502ZM11.5002 3.12549C10.4062 3.12549 9.35701 3.56009 8.58343 4.33367C7.80984 5.10726 7.37524 6.15647 7.37524 7.25049V10.0005H15.6252V7.25049C15.6252 6.15647 15.1906 5.10726 14.4171 4.33367C13.6435 3.56009 12.5943 3.12549 11.5002 3.12549Z" fill="#F2F2F2"/>
</svg>
