<svg width="20" height="14" viewBox="0 0 20 14" fill="none" xmlns="http://www.w3.org/2000/svg">
<path d="M12.5002 0.333496C14.2683 0.333496 15.964 1.03588 17.2142 2.28612C18.4644 3.53636 19.1668 5.23205 19.1668 7.00016C19.1668 8.76827 18.4644 10.464 17.2142 11.7142C15.964 12.9644 14.2683 13.6668 12.5002 13.6668C10.7321 13.6668 9.03636 12.9644 7.78612 11.7142C6.53587 10.464 5.8335 8.76827 5.8335 7.00016C5.8335 5.23205 6.53587 3.53636 7.78612 2.28612C9.03636 1.03588 10.7321 0.333496 12.5002 0.333496ZM12.5002 2.00016C11.1741 2.00016 9.90231 2.52695 8.96463 3.46463C8.02695 4.40231 7.50016 5.67408 7.50016 7.00016C7.50016 8.32624 8.02695 9.59801 8.96463 10.5357C9.90231 11.4734 11.1741 12.0002 12.5002 12.0002C13.8262 12.0002 15.098 11.4734 16.0357 10.5357C16.9734 9.59801 17.5002 8.32624 17.5002 7.00016C17.5002 5.67408 16.9734 4.40231 16.0357 3.46463C15.098 2.52695 13.8262 2.00016 12.5002 2.00016ZM11.6668 3.66683H12.9168V6.81683L14.8585 8.7585L13.9752 9.64183L11.6668 7.3335V3.66683ZM1.66683 12.0002C1.44582 12.0002 1.23385 11.9124 1.07757 11.7561C0.921293 11.5998 0.833496 11.3878 0.833496 11.1668C0.833496 10.9458 0.921293 10.7339 1.07757 10.5776C1.23385 10.4213 1.44582 10.3335 1.66683 10.3335H4.8585C5.11683 10.9252 5.45016 11.4835 5.8335 12.0002H1.66683ZM2.50016 7.8335C2.27915 7.8335 2.06719 7.7457 1.91091 7.58942C1.75463 7.43314 1.66683 7.22118 1.66683 7.00016C1.66683 6.77915 1.75463 6.56719 1.91091 6.41091C2.06719 6.25463 2.27915 6.16683 2.50016 6.16683H4.2085L4.16683 7.00016L4.2085 7.8335H2.50016ZM3.3335 3.66683C3.11248 3.66683 2.90052 3.57903 2.74424 3.42275C2.58796 3.26647 2.50016 3.05451 2.50016 2.8335C2.50016 2.61248 2.58796 2.40052 2.74424 2.24424C2.90052 2.08796 3.11248 2.00016 3.3335 2.00016H5.8335C5.45016 2.51683 5.11683 3.07516 4.8585 3.66683H3.3335Z" fill="#7F8C98"/>
</svg>
